<svg xmlns="http://www.w3.org/2000/svg" viewBox="0 0 20.4 4"><defs><style>.a{fill:#fff;}</style></defs><title>white-logo</title><polygon class="a" points="4.24 2.3 3.35 3.28 2.69 4 1.04 4 2.73 2.13 1.67 0.16 3.08 0.16 3.61 1.15 4.24 2.3"/><polygon class="a" points="5.15 4 3.74 4 3.35 3.28 4.24 2.3 5.15 4"/><polygon class="a" points="6.31 0.02 4.38 2.16 3.75 1.01 4.65 0.02 6.31 0.02"/><path class="a" d="M8.8,1.11a.94.94,0,0,1,.36.36A1.11,1.11,0,0,1,9.29,2a1.39,1.39,0,0,1-.17.68,1.27,1.27,0,0,1-.46.48A1.19,1.19,0,0,1,8,3.37a.78.78,0,0,1-.71-.32l-.22,1.1H6.3L6.93,1h.77l0,.22A1,1,0,0,1,8.32,1,1,1,0,0,1,8.8,1.11ZM8.32,2.54a.69.69,0,0,0,.15-.46.44.44,0,0,0-.12-.32A.43.43,0,0,0,8,1.63a.5.5,0,0,0-.4.18.7.7,0,0,0-.15.47.41.41,0,0,0,.44.44A.5.5,0,0,0,8.32,2.54Z" transform="translate(-0.39 -0.17)"/><path class="a" d="M12,2.37H10.3q0,.38.52.38a1,1,0,0,0,.3,0,.79.79,0,0,0,.26-.14l.34.51a1.61,1.61,0,0,1-1,.3,1.51,1.51,0,0,1-.65-.13,1,1,0,0,1-.43-.37,1,1,0,0,1-.15-.56,1.34,1.34,0,0,1,.18-.68,1.25,1.25,0,0,1,.49-.48A1.49,1.49,0,0,1,10.9,1a1.36,1.36,0,0,1,.6.13.92.92,0,0,1,.4.36A1,1,0,0,1,12,2,1.79,1.79,0,0,1,12,2.37Zm-1.46-.71a.59.59,0,0,0-.19.29h1a.35.35,0,0,0-.12-.29.46.46,0,0,0-.32-.1A.52.52,0,0,0,10.54,1.66Z" transform="translate(-0.39 -0.17)"/><path class="a" d="M15.23.17,14.6,3.33h-.77l0-.23a.93.93,0,0,1-.67.26,1,1,0,0,1-.48-.13.94.94,0,0,1-.36-.36,1.11,1.11,0,0,1-.14-.56,1.38,1.38,0,0,1,.17-.68,1.26,1.26,0,0,1,.46-.48A1.2,1.2,0,0,1,13.49,1a.79.79,0,0,1,.7.31L14.42.17ZM13.89,2.54A.69.69,0,0,0,14,2.07a.45.45,0,0,0-.12-.32.42.42,0,0,0-.32-.12.5.5,0,0,0-.4.18.7.7,0,0,0-.15.47.44.44,0,0,0,.11.32.43.43,0,0,0,.32.12A.5.5,0,0,0,13.89,2.54Z" transform="translate(-0.39 -0.17)"/><path class="a" d="M18.21.17l-.63,3.16h-.77l0-.23a.93.93,0,0,1-.67.26,1,1,0,0,1-.48-.13.94.94,0,0,1-.36-.36,1.11,1.11,0,0,1-.14-.56,1.38,1.38,0,0,1,.17-.68,1.26,1.26,0,0,1,.46-.48A1.2,1.2,0,0,1,16.47,1a.79.79,0,0,1,.7.31L17.4.17ZM16.86,2.54A.69.69,0,0,0,17,2.07a.45.45,0,0,0-.12-.32.42.42,0,0,0-.32-.12.5.5,0,0,0-.4.18.7.7,0,0,0-.15.47.44.44,0,0,0,.11.32.43.43,0,0,0,.32.12A.5.5,0,0,0,16.86,2.54Z" transform="translate(-0.39 -0.17)"/><path class="a" d="M18.74,3.24a1,1,0,0,1-.42-.37,1,1,0,0,1-.15-.55,1.28,1.28,0,0,1,.69-1.16A1.51,1.51,0,0,1,19.59,1a1.48,1.48,0,0,1,.64.13,1,1,0,0,1,.42.37A1,1,0,0,1,20.8,2a1.29,1.29,0,0,1-.69,1.16,1.51,1.51,0,0,1-.73.17A1.47,1.47,0,0,1,18.74,3.24Zm1.08-.7A.69.69,0,0,0,20,2.07a.45.45,0,0,0-.12-.32.42.42,0,0,0-.32-.12.5.5,0,0,0-.4.18.7.7,0,0,0-.15.47.44.44,0,0,0,.12.32.43.43,0,0,0,.32.12A.5.5,0,0,0,19.82,2.54Z" transform="translate(-0.39 -0.17)"/><rect class="a" x="0.46" y="1.4" width="1.49" height="0.25" rx="0.12" ry="0.12"/><rect class="a" x="0.74" y="1.96" width="1.49" height="0.25" rx="0.12" ry="0.12"/><rect class="a" y="2.5" width="1.75" height="0.25" rx="0.12" ry="0.12"/></svg>